<svg xmlns="http://www.w3.org/2000/svg" width="87" height="44" viewBox="0 0 207 164" fill="none">
<path d="M12.4534 112.08C12.7908 114.066 16.8406 113.291 16.937 112.225C17.3709 104.572 20.2153 95.6593 23.0598 88.6843C28.7487 86.9406 34.0037 85.2937 36.6071 85.3906C37.7641 85.4875 38.3427 82.7265 36.5106 82.8234C32.8948 82.9687 28.0255 84.325 24.4579 85.1968C26.1453 81.1281 27.688 77.0593 28.6523 72.9422C32.4127 71.9734 38.1498 70.2296 41.8139 70.2296C45.1404 70.2296 44.6583 72.7 42.5852 74.2015C40.705 75.6546 42.296 77.4468 43.7423 76.3328C48.1777 73.1843 47.9849 67.7593 42.1031 67.3234C33.7626 66.7906 16.4067 74.5406 10.9588 74.2015C9.84997 74.1046 9.31965 76.8656 11.1517 76.8172C14.8157 76.575 19.7332 75.2671 23.3008 74.3468C22.4812 77.3984 20.601 81.8547 18.6726 86.6984C17.178 87.0859 12.3569 88.5875 8.54827 89.1687C6.23414 89.5078 4.20928 89.4593 3.63075 88.5875C3.10043 87.764 3.72717 86.3593 5.02887 85.3421C6.95731 83.9375 5.36634 82.1937 3.92001 83.2109C-0.563608 86.3593 -0.418973 91.7843 5.51098 92.2203C8.54827 92.4625 12.839 91.5422 17.2262 90.3312C14.3818 97.7906 11.8266 107.236 12.4534 112.08Z" fill="#44C0B8"/>
<path d="M44.61 83.8891C41.862 84.5188 39.7407 87.1828 38.6318 89.6047C37.3784 92.2688 36.7998 95.3203 37.1373 98.275C37.523 101.617 39.4514 104.33 43.2119 104.572C47.117 104.863 49.9132 101.811 51.7934 99.05C58.4948 100.261 64.1837 94.4 65.9193 91.3969C66.546 90.3313 65.0515 89.8469 64.3283 90.525C61.7249 93.5281 57.627 97.6453 53.2398 96.8703C54.6379 94.3031 55.8914 91.2516 56.3253 88.3453C56.711 85.4391 56.4699 82.1938 53.8183 80.45C50.4435 78.2703 45.9599 80.1109 44.61 83.8891ZM50.9738 96.2891C46.8277 95.2234 45.7671 90.0891 46.3938 86.3594C46.7795 83.4531 49.4311 80.5953 52.3238 82.5813C54.204 83.8406 54.3004 86.3594 54.0594 88.3453C53.4808 91.0578 52.2273 93.8672 50.9738 96.2891ZM49.5275 98.4688C48.4669 100.019 45.6224 103.942 43.5976 101.714C41.0906 98.9531 42.3441 92.1719 43.8386 89.2172C44.0315 93.0922 45.5742 97.0156 49.5275 98.4688Z" fill="#44C0B8"/>
<path d="M65.7266 109.416C66.3051 106.703 68.6192 102.392 69.246 99.2921C69.9691 96.0468 67.3657 94.3031 65.7266 91.4453C71.4155 84.5187 74.9349 73.6687 68.9567 73.6687C65.9194 73.6687 61.3394 78.6093 61.3394 85.1968C61.3394 91.1062 65.0034 94.6421 65.0034 97.0156C65.0034 99.6796 59.893 109.173 63.075 111.934C66.9318 115.325 80.672 95.0781 82.6486 92.2203C83.7575 90.5734 81.829 89.5562 81.2023 90.4281C77.7793 95.1265 69.6799 105.637 65.7266 109.416ZM64.4249 89.5078C63.8945 88.1515 63.7017 86.8921 63.7017 85.0515C63.7017 79.7718 66.6426 75.8968 68.9567 75.8968C71.994 75.8484 68.9085 83.889 64.4249 89.5078Z" fill="#44C0B8"/>
<path d="M84.6733 95.3202C88.4819 94.3514 93.5441 93.3342 95.5689 89.5561C96.1957 88.3936 96.4367 87.0374 96.0028 85.8749C94.6047 82.1452 89.6872 82.2421 86.7945 84.0827C82.9377 86.4561 79.9968 91.3483 79.2736 95.8046C78.5505 100.455 80.3343 105.831 85.8303 105.831C92.6281 105.831 99.5222 97.3061 103.379 92.2202C104.536 90.8155 102.56 89.5561 101.644 90.8639C99.1848 94.6421 91.5674 103.119 87.2766 103.119C83.7572 103.119 83.8537 97.6452 84.6733 95.3202ZM85.4928 92.753C86.5053 90.0405 88.0962 86.8436 91.0371 85.8749C93.4476 85.0514 94.9422 87.328 92.8209 89.5077C90.9407 91.4452 88.048 92.1718 85.4928 92.753Z" fill="#44C0B8"/>
<path d="M108.779 88.0062C110.177 86.1172 109.84 83.7437 108.538 82.6781C106.417 80.8859 102.078 81.8062 101.258 87.425C100.921 89.9922 102.271 96.725 102.753 99.1468C99.8601 101.084 95.1354 105.25 94.5569 108.98C93.6891 115.809 102.897 116.487 106.465 110.481C108.297 107.333 107.67 102.489 106.995 99.0984C109.984 97.3062 114.227 94.5937 116.059 91.5906C116.83 90.2343 114.902 89.7015 114.323 90.2343C112.443 93.1406 109.358 95.0781 106.417 96.7734C105.838 94.4 105.26 91.5422 105.067 89.0234C105.019 87.9578 105.115 84.9062 106.61 84.9062C107.574 84.9062 106.513 87.1343 106.513 87.425C106.513 88.2484 107.477 89.8953 108.779 88.0062ZM103.187 101.52C103.428 104.039 103.862 106.412 102.897 108.883C100.728 114.502 94.5569 111.837 97.6906 106.8C99.0405 104.717 101.21 102.877 103.187 101.52Z" fill="#44C0B8"/>
<path d="M117.601 94.0608C119.048 91.3968 120.735 88.4421 122.905 86.5046C125.894 83.8405 128.883 85.2452 130.04 88.0546C131.631 92.2202 126.569 102.441 129.268 102.731C130.908 102.973 139.489 92.5593 140.791 90.9124C141.852 89.9436 143.394 90.4765 143.057 91.5421C141.514 94.3999 131.583 105.395 128.545 105.395C119.578 105.395 129.606 83.9858 124.399 88.1999C122.664 89.653 120.012 94.1577 119.144 95.9499C118.373 97.4515 116.155 102.634 114.998 104.281C113.986 105.637 112.298 104.766 112.154 103.603C111.141 90.1374 124.64 51.0483 141.369 49.5468C161.232 47.6577 154.242 84.5186 120.301 84.8093C119.867 85.9718 118.662 89.9921 117.601 94.0608ZM121.217 82.4843C153.663 81.8061 156.845 46.8827 141.418 52.0655C132.113 55.1655 124.64 73.5718 121.217 82.4843Z" fill="#44C0B8"/>
<path d="M147.107 83.8891C144.359 84.5188 142.237 87.1828 141.128 89.6047C139.875 92.2688 139.296 95.3203 139.634 98.275C140.02 101.617 141.948 104.33 145.708 104.572C149.614 104.863 152.41 101.811 154.29 99.05C160.991 100.261 166.68 94.4 168.416 91.3969C169.043 90.3313 167.548 89.8469 166.825 90.525C164.221 93.5281 160.124 97.6453 155.736 96.8703C157.134 94.3031 158.388 91.2516 158.822 88.3453C159.208 85.4391 158.966 82.1938 156.315 80.45C152.94 78.2703 148.456 80.1109 147.107 83.8891ZM153.47 96.2891C149.324 95.2234 148.264 90.0891 148.89 86.3594C149.276 83.4531 151.928 80.5953 154.82 82.5813C156.701 83.8406 156.797 86.3594 156.556 88.3453C156.026 91.0578 154.724 93.8672 153.47 96.2891ZM152.024 98.4688C150.963 100.019 148.119 103.942 146.094 101.714C143.587 98.9531 144.841 92.1719 146.335 89.2172C146.528 93.0922 148.071 97.0156 152.024 98.4688Z" fill="#44C0B8"/>
<path d="M168.223 109.416C168.753 106.703 171.116 102.392 171.743 99.2921C172.466 96.0468 169.862 94.3031 168.223 91.4453C173.912 84.5187 177.431 73.6687 171.453 73.6687C168.416 73.6687 163.836 78.6093 163.836 85.1968C163.836 91.1062 167.5 94.6421 167.5 97.0156C167.5 99.6796 162.39 109.173 165.572 111.934C169.428 115.325 183.169 95.0781 185.145 92.2203C186.254 90.5734 184.326 89.5562 183.699 90.4281C180.324 95.1265 172.176 105.637 168.223 109.416ZM166.921 89.5078C166.391 88.1515 166.198 86.8921 166.198 85.0515C166.198 79.7718 169.139 75.8968 171.453 75.8968C174.491 75.8484 171.405 83.889 166.921 89.5078Z" fill="#44C0B8"/>
<path d="M187.17 95.3202C190.979 94.3514 196.041 93.3342 198.066 89.5561C198.692 88.3936 198.933 87.0374 198.5 85.8749C197.101 82.1452 192.184 82.2421 189.291 84.0827C185.434 86.4561 182.493 91.3483 181.77 95.8046C181.047 100.455 182.831 105.831 188.279 105.831C195.077 105.831 201.971 97.3061 205.828 92.2202C206.985 90.8155 205.008 89.5561 204.092 90.8639C201.633 94.6421 194.016 103.119 189.725 103.119C186.302 103.119 186.35 97.6452 187.17 95.3202ZM187.99 92.753C189.002 90.0405 190.593 86.8436 193.534 85.8749C195.993 85.0514 197.439 87.328 195.318 89.5077C193.437 91.4452 190.545 92.1718 187.99 92.753Z" fill="#44C0B8"/>
<path d="M46.2973 24.5531C53.77 17.0453 62.3033 11.2328 71.9937 7.16401C82.0216 2.90151 92.4834 0.770264 103.476 0.770264C114.468 0.770264 124.929 2.90151 134.957 7.16401C144.648 11.2812 153.181 17.0937 160.654 24.5531C168.126 32.0609 173.912 40.6828 178.01 50.3703C180.71 56.8124 182.59 63.4968 183.554 70.3265L180.902 69.3578H180.854C179.89 63.2062 178.154 57.1999 175.696 51.3874C171.742 41.9906 166.15 33.6109 158.918 26.3453C151.686 19.0796 143.394 13.4609 133.993 9.48901C124.303 5.37183 114.13 3.28901 103.476 3.28901C92.8691 3.28901 82.6966 5.37183 72.958 9.48901C63.605 13.4609 55.2645 19.0796 48.0329 26.3453C40.8012 33.6109 35.2088 41.9421 31.2555 51.3874C29.8091 54.8265 28.6038 58.3624 27.6878 61.9468L24.8916 62.6734C25.904 58.5078 27.2539 54.439 28.9413 50.4187C33.0875 40.6343 38.8246 32.0609 46.2973 24.5531ZM160.702 139.447C153.229 146.955 144.648 152.767 135.005 156.836C124.978 161.098 114.516 163.23 103.524 163.23C92.5798 163.23 82.0698 161.098 72.0419 156.836C62.3515 152.719 53.8182 146.906 46.3455 139.447C39.4513 132.52 34.0035 124.673 30.002 115.858L32.4125 115.034C36.3176 123.462 41.5244 131.019 48.1293 137.655C55.3609 144.92 63.6532 150.539 73.0544 154.511C82.7448 158.628 92.9173 160.711 103.572 160.711C114.178 160.711 124.351 158.628 134.089 154.511C143.442 150.539 151.783 144.92 159.015 137.655C164.703 131.939 169.38 125.594 173.044 118.57L176.419 117.456C172.369 125.594 167.162 132.956 160.702 139.447Z" 
fill="#44C0B8"/>
</svg>